<svg id="Layer_1" data-name="Layer 1" xmlns="http://www.w3.org/2000/svg" viewBox="0 0 22.5 22.5"><path d="M15.94,0A6.58,6.58,0,0,0,9.37,6.56a6.3,6.3,0,0,0,.39,1.89L.88,17.33a3.06,3.06,0,0,0,0,4.29,3.06,3.06,0,0,0,4.29,0l8.88-8.88a6.24,6.24,0,0,0,1.89.39A6.58,6.58,0,0,0,22.5,6.56a6.38,6.38,0,0,0-.59-2.69l-.55-1.24-1,1-3,3H15.94V5.08l3.93-3.94L18.63.59A6.38,6.38,0,0,0,15.94,0Zm0,1.88c.16,0,.29.08.45.09L14.06,4.3V8.44H18.2l2.32-2.33a3.63,3.63,0,0,1,.1.45,4.67,4.67,0,0,1-4.68,4.69,4.74,4.74,0,0,1-1.85-.38l-.58-.25L3.84,20.29a1.15,1.15,0,0,1-1.63,0,1.16,1.16,0,0,1,0-1.64L11.87,9l-.24-.59a4.49,4.49,0,0,1-.38-1.84A4.67,4.67,0,0,1,15.94,1.88Z"/></svg>