<svg id="Layer_1" data-name="Layer 1" xmlns="http://www.w3.org/2000/svg" viewBox="0 0 20.63 22.56"><path d="M10.31,0a9.37,9.37,0,0,0-4.8,1.52A8.37,8.37,0,0,1,.94,2.81H0v.94C0,11,2.45,15.7,4.92,18.54a15.09,15.09,0,0,0,5,3.9l.35.12.35-.12a14.62,14.62,0,0,0,5-3.87c2.48-2.84,4.93-7.56,4.93-14.82V2.81h-.94a8.37,8.37,0,0,1-4.57-1.29A9.44,9.44,0,0,0,10.31,0Zm0,1.88a7.4,7.4,0,0,1,3.9,1.28,11.56,11.56,0,0,0,4.48,1.38c-.18,6.34-2.28,10.38-4.39,12.8a11.42,11.42,0,0,1-4,3.14,11.7,11.7,0,0,1-4-3.17c-2.12-2.43-4.22-6.46-4.4-12.77A11.56,11.56,0,0,0,6.42,3.16,7.33,7.33,0,0,1,10.31,1.88Zm0,3.75A2.83,2.83,0,0,0,7.5,8.44,2.77,2.77,0,0,0,8,10a4.7,4.7,0,0,0-2.34,4H7.5a2.82,2.82,0,0,1,5.63,0H15a4.7,4.7,0,0,0-2.34-4,2.83,2.83,0,0,0-2.35-4.39Zm0,1.87a.94.94,0,1,1-.93.94A.93.93,0,0,1,10.31,7.5Z"/></svg>