<svg id="Layer_1" data-name="Layer 1" xmlns="http://www.w3.org/2000/svg" viewBox="0 0 28.13 18.75"><defs><style>.cls-1{fill-rule:evenodd;}</style></defs><path class="cls-1" d="M0,8.5v7.44H3a3.72,3.72,0,0,0,7.21,0H18a3.72,3.72,0,0,0,7.21,0h3V6.18l-.27-.29L22.24.26,21.94,0H15.06V8.5ZM21.15,1.88H16.88V14.06H18a3.72,3.72,0,0,1,7.21,0h1.08V7ZM15,10.31H1.88v3.75H3a3.72,3.72,0,0,1,7.21,0H15ZM8.44,15a1.88,1.88,0,1,0-1.88,1.88A1.86,1.86,0,0,0,8.44,15Zm15,0a1.88,1.88,0,1,0-1.88,1.88A1.86,1.86,0,0,0,23.44,15Z"/></svg>