<svg id="Layer_1" data-name="Layer 1" xmlns="http://www.w3.org/2000/svg" viewBox="0 0 20.63 22.5"><path d="M4.22,0A3.28,3.28,0,1,0,7.5,3.28,3.29,3.29,0,0,0,4.22,0Zm0,1.88a1.41,1.41,0,1,1-1.41,1.4A1.39,1.39,0,0,1,4.22,1.88Zm7,.93v.94H9.38V5.63h9.37V15H8.44v1.88h2.34L8.44,21.56h1.87l1.88-3.75,1.87,3.75h1.88l-2.35-4.68h7V3.75h-7.5V2.81ZM3.75,7.5A3.76,3.76,0,0,0,0,11.25v4.92l1.88.94V22.5H3.75V15.94l-.53-.24L1.88,15V11.25A1.85,1.85,0,0,1,3.75,9.38H5.39a1.86,1.86,0,0,1,1.32.55l2,2,.29.27h4.14V10.31H9.79L8.06,8.61H8A3.79,3.79,0,0,0,5.39,7.5Zm.94,8.44V22.5H6.56V15.94Z"/></svg>